PathFileType	4	(X/Y/Z)	 s01c0102.trc
DataRate	CameraRate	NumFrames	NumMarkers	Units	OrigDataRate	OrigDataStartFrame	OrigNumFrames
200	200	4	48	mm	200	1501	2000
Frame#	Time	racr			lacr			c7			jug			rlel			rdr			llel			ldr			s2			lic			ric			lasi			rasi			rpsi			lpsi			rgt			lgt			rth1			rth2			rth3			rth4			rlfc			rsh1			rsh2			rsh3			rsh4			rlmal			rmmal			rcal			rtoe			rmt5			lth1			lth2			lth4			lth3			llfc			lsh1			lsh2			lsh3			lsh4			llmal			lmmal			lcal			ltoe			lmt5			SBIKE			LBIKE			RBIKE			
		X1	Y1	Z1	X2	Y2	Z2	X3	Y3	Z3	X4	Y4	Z4	X5	Y5	Z5	X6	Y6	Z6	X7	Y7	Z7	X8	Y8	Z8	X9	Y9	Z9	X10	Y10	Z10	X11	Y11	Z11	X12	Y12	Z12	X13	Y13	Z13	X14	Y14	Z14	X15	Y15	Z15	X16	Y16	Z16	X17	Y17	Z17	X18	Y18	Z18	X19	Y19	Z19	X20	Y20	Z20	X21	Y21	Z21	X22	Y22	Z22	X23	Y23	Z23	X24	Y24	Z24	X25	Y25	Z25	X26	Y26	Z26	X27	Y27	Z27	X28	Y28	Z28	X29	Y29	Z29	X30	Y30	Z30	X31	Y31	Z31	X32	Y32	Z32	X33	Y33	Z33	X34	Y34	Z34	X35	Y35	Z35	X36	Y36	Z36	X37	Y37	Z37	X38	Y38	Z38	X39	Y39	Z39	X40	Y40	Z40	X41	Y41	Z41	X42	Y42	Z42	X43	Y43	Z43	X44	Y44	Z44	X45	Y45	Z45	X46	Y46	Z46	X47	Y47	Z47	X48	Y48	Z48	
1501	7.5050	486.936096	1323.354785	-101.655625	515.946111	1304.999092	-416.008394	444.430391	1391.444565	-261.809733	454.006131	1226.414449	-261.615726	564.062851	1061.100143	-7.360473	729.633178	861.795707	-63.021175	567.377034	1043.231304	-528.009001	728.732850	866.173653	-430.068233	-72.943949	1144.480104	-252.390524	93.488349	1147.139274	-427.671258	92.846222	1162.975726	-103.622490	93.069855	1096.205141	-405.778485	118.973959	1121.010954	-136.237409	-42.072725	1186.128495	-205.340825	-48.466373	1185.586763	-310.840756	53.119970	1065.435031	-59.855329	25.966287	1006.998919	-448.332791	175.842021	1021.451520	-53.083531	257.313289	1007.209627	-60.117258	343.864786	984.922730	-74.049842	267.971971	1059.059166	-79.398010	428.256390	921.964743	-104.518384	347.944755	841.697803	-70.980552	293.660932	776.405158	-73.647514	229.930868	714.675511	-82.532595	328.063709	746.467101	-111.876319	137.580820	624.492889	-96.196593	175.265395	623.744819	-178.834649	79.111667	609.006662	-149.153450	327.310699	497.973175	-137.586223	220.640691	507.733841	-66.460078	77.253526	892.252628	-458.583455	137.937510	826.927654	-454.956490	177.527326	862.757350	-445.308972	187.445171	759.274314	-436.998223	235.229452	652.954029	-424.659115	182.391098	545.991255	-450.999900	171.003379	460.169550	-443.524234	157.237240	376.470697	-427.961187	228.066999	454.886860	-420.440986	136.918517	254.741240	-409.551785	NaN	NaN	NaN	91.686574	228.321009	-366.907819	362.763902	167.661044	-374.294845	255.585297	160.516738	-439.356389	-225.040149	892.891617	-252.687979	-12.628933	84.508360	-456.000944	-21.543211	80.843974	-55.876288	
1502	7.5100	485.887988	1323.281578	-101.303208	515.545747	1305.838261	-415.902071	444.520605	1392.248707	-262.019524	453.088601	1227.454682	-262.210740	562.727758	1060.780805	-8.420400	729.317420	861.806207	-63.507862	567.604838	1043.981066	-526.793214	728.989795	866.534721	-429.965028	-73.121779	1146.278001	-252.528314	92.290974	1148.385271	-427.948773	92.552269	1165.388169	-103.981748	91.457279	1097.168592	-406.069100	118.288227	1123.124257	-136.656504	-42.548746	1188.217164	-205.436487	-49.416193	1187.201379	-311.182645	52.128272	1068.969945	-59.767609	23.877295	1008.139833	-448.434728	174.839904	1025.149623	-53.910784	256.404689	1011.617066	-61.160247	343.140963	990.052263	-74.968610	266.532199	1063.352207	-80.855342	428.585358	927.040592	-105.545403	350.031631	845.347791	-71.878731	296.764946	779.185678	-74.202933	233.995502	716.443454	-82.709259	331.479218	749.655978	-112.522361	142.679807	624.898318	-95.976357	180.360337	624.330701	-178.660535	84.383729	609.123669	-148.943484	333.026160	498.999150	-137.558417	226.337911	508.332844	-66.451288	75.153305	892.988589	-458.951593	135.792699	827.564504	-455.285994	175.430431	863.303848	-445.775445	185.277383	759.895941	-437.289519	232.528090	653.268951	-424.816810	179.573272	546.627960	-451.294702	167.815458	460.842402	-443.739487	153.587001	377.202612	-428.122279	224.775229	455.331610	-420.555053	132.661761	255.728828	-409.599362	NaN	NaN	NaN	87.227112	229.678771	-366.813081	357.631898	166.057625	-374.334371	250.344506	160.304442	-439.394139	-225.040152	892.922932	-252.595188	-12.635219	84.519343	-456.010960	-21.554722	80.876175	-55.884305	
1503	7.5150	485.009439	1323.257033	-101.106664	515.180503	1306.699437	-415.720407	444.598079	1393.194020	-262.218827	452.306389	1228.474082	-262.704495	561.521781	1060.550087	-9.664106	729.081711	861.838973	-63.906888	567.867384	1044.875938	-525.662131	729.038560	866.530964	-429.661331	-73.517284	1148.057583	-252.486461	90.926939	1149.696153	-428.181790	92.336336	1167.797576	-104.259686	90.026226	1098.359487	-406.765197	117.597327	1125.220112	-137.055058	-42.799939	1190.116956	-205.714817	-50.416100	1188.786379	-311.425915	51.131519	1072.252314	-59.722652	21.766214	1009.293484	-448.514141	173.717693	1028.556992	-54.657020	255.360230	1015.713233	-62.193207	342.276014	994.896685	-76.081569	264.874846	1067.423737	-82.315720	428.782765	931.636112	-106.592681	351.958295	848.679232	-72.771850	299.692119	781.697550	-74.628795	237.846064	718.042510	-82.806814	334.340892	752.354147	-114.633473	147.482421	625.001387	-95.619223	185.334184	624.437896	-178.417364	89.229613	608.978302	-148.675573	338.305308	499.663285	-137.557311	231.646170	508.704186	-66.411883	72.984679	893.708510	-459.142985	133.655517	828.324576	-455.607708	173.317371	864.054413	-446.391943	183.199413	760.653707	-437.592814	230.138738	653.776229	-424.957810	177.145765	547.280515	-451.507089	164.893542	461.656829	-443.866756	150.342752	378.109566	-428.339217	221.823888	455.958550	-420.626901	128.809664	256.896861	-409.562878	NaN	NaN	NaN	83.110980	231.320441	-366.802407	352.857644	164.686847	-374.342176	245.528643	160.161448	-439.413056	-225.052560	892.921216	-252.571190	-12.651350	84.574145	-455.962832	-21.546251	80.880333	-55.876498	
1504	7.5200	484.142539	1323.205065	-101.208970	514.822759	1307.494567	-415.447033	444.681705	1394.004363	-262.511282	451.455785	1229.372143	-263.420909	560.493428	1060.492912	-11.103865	729.095537	861.990392	-64.161765	568.295046	1045.777826	-524.142855	728.776145	866.252387	-429.549195	-74.269400	1150.209659	-252.359644	90.147658	1151.068094	-428.950960	92.133813	1170.056965	-104.539928	88.524254	1099.604155	-407.332189	116.891452	1127.116174	-137.652293	-43.104131	1192.003700	-206.025652	-51.031396	1190.246634	-311.734384	50.035605	1075.272956	-59.760209	19.564009	1010.415501	-448.529803	172.572238	1031.686353	-55.416188	254.268004	1019.550833	-63.250156	341.273154	999.415244	-77.230872	263.160095	1071.084657	-83.901102	428.788917	935.723815	-107.579582	353.755941	851.624016	-73.576281	302.427228	784.006950	-75.061522	241.373378	719.418792	-82.798980	337.311482	754.949886	-115.072641	151.976985	624.860788	-95.256207	189.743562	624.636114	-178.140811	93.715602	608.709916	-148.375490	343.635972	500.227983	-137.568698	236.558994	508.854955	-66.310346	70.825365	894.375825	-459.346139	131.526434	829.020887	-455.913236	171.217752	864.840884	-447.071360	181.225400	761.529697	-437.784632	228.080946	654.424969	-425.139343	174.940871	548.164378	-451.732056	162.278457	462.692823	-444.040698	147.401536	379.130632	-428.439820	219.217642	456.729402	-420.771881	125.263726	258.195734	-409.630694	NaN	NaN	NaN	79.493975	232.961085	-366.579599	348.460338	163.464329	-374.367521	241.024849	160.188039	-439.364193	-225.053186	892.918633	-252.516013	-12.646834	84.597949	-455.959356	-21.548930	80.883154	-55.873260	
